<svg width="83" height="24" viewBox="0 0 83 24" fill="none" xmlns="http://www.w3.org/2000/svg">
<g clip-path="url(#clip0_168_267)">
<path d="M33.5566 20.6353H34.7632C35.7826 20.6353 36.4835 21.3322 36.4835 22.2441V22.2521C36.4835 23.164 35.7786 23.8728 34.7632 23.8728H33.5566V20.6313V20.6353ZM34.1261 21.157V23.3591H34.7632C35.4441 23.3591 35.8862 22.9011 35.8862 22.268V22.26C35.8862 21.6269 35.4402 21.157 34.7632 21.157H34.1261Z" fill="white"/>
<path d="M38.1558 20.6352H40.557V21.1449H38.7252V21.9891H40.3499V22.4988H38.7252V23.3669H40.5809V23.8766H38.1558V20.6352Z" fill="white"/>
<path d="M42.2379 20.6352H42.7635L44.4997 22.8731V20.6352H45.0612V23.8766H44.5833L42.7954 21.571V23.8766H42.2339V20.6352H42.2379Z" fill="white"/>
<path d="M47.6695 21.1646H46.6421V20.639H49.2703V21.1646H48.2429V23.8764H47.6695V21.1646Z" fill="white"/>
<path d="M51.5878 20.6152H52.1134L53.539 23.8766H52.9377L52.6072 23.0961H51.0741L50.7396 23.8766H50.1582L51.5838 20.6152H51.5878ZM52.4001 22.5903L51.8386 21.2962L51.2851 22.5903H52.4001Z" fill="white"/>
<path d="M55.0762 20.6353H55.6456V23.3551H57.3499V23.8728H55.0762V20.6313V20.6353Z" fill="white"/>
<path d="M61.5547 22.2639V22.256C61.5547 21.3361 62.2436 20.5795 63.2272 20.5795C63.8245 20.5795 64.1868 20.7866 64.4935 21.0852L64.1271 21.5073C63.8683 21.2684 63.5895 21.1051 63.2192 21.1051C62.602 21.1051 62.152 21.6148 62.152 22.248V22.256C62.152 22.8891 62.602 23.4028 63.2192 23.4028C63.6174 23.4028 63.8723 23.2435 64.151 22.9847L64.5174 23.355C64.1789 23.7054 63.8085 23.9284 63.2033 23.9284C62.2595 23.9284 61.5547 23.1917 61.5547 22.2639Z" fill="white"/>
<path d="M66.0903 20.6353H66.6598V23.3551H68.3641V23.8728H66.0903V20.6313V20.6353Z" fill="white"/>
<path d="M69.9692 20.6352H70.5387V23.8766H69.9692V20.6352Z" fill="white"/>
<path d="M72.3858 20.6352H72.9115L74.6476 22.8731V20.6352H75.2091V23.8766H74.7313L72.9433 21.571V23.8766H72.3818V20.6352H72.3858Z" fill="white"/>
<path d="M77.0532 20.6352H77.6227V23.8766H77.0532V20.6352Z" fill="white"/>
<path d="M79.3271 22.2639V22.256C79.3271 21.3361 80.016 20.5795 80.9996 20.5795C81.5969 20.5795 81.9593 20.7866 82.2659 21.0852L81.8996 21.5073C81.6407 21.2684 81.362 21.1051 80.9917 21.1051C80.3744 21.1051 79.9245 21.6148 79.9245 22.248V22.256C79.9245 22.8891 80.3744 23.4028 80.9917 23.4028C81.3899 23.4028 81.6447 23.2435 81.9235 22.9847L82.2898 23.355C81.9513 23.7054 81.581 23.9284 80.9757 23.9284C80.032 23.9284 79.3271 23.1917 79.3271 22.2639Z" fill="white"/>
<path d="M40.3461 17.099H33.5566V1.17862H40.1629C43.4163 1.17862 45.4153 2.79136 45.4153 5.29609V5.33989C45.4153 7.13581 44.4596 8.13531 43.3247 8.77245C45.1684 9.47727 46.3033 10.5445 46.3033 12.6828V12.7267C46.3033 15.6376 43.9379 17.091 40.3461 17.091V17.099ZM41.9389 5.88544C41.9389 4.83815 41.1186 4.2488 39.6413 4.2488H36.9693V7.61366H39.4143C40.9593 7.61366 41.9389 7.11192 41.9389 5.92924V5.88544ZM42.8269 12.2528C42.8269 11.1856 42.0305 10.5246 40.2346 10.5246H36.9693V14.0248H40.3461C41.8911 14.0248 42.8229 13.4793 42.8229 12.2966V12.2528H42.8269Z" fill="white"/>
<path d="M51.0061 16.7603H47.2231C47.9837 11.6792 48.7483 6.59804 49.5089 1.51691C50.7393 1.51691 51.3526 1.51691 52.583 1.51691C53.5586 3.719 54.7254 5.91312 55.9877 7.9639C57.254 5.91312 58.4168 3.72298 59.3924 1.51691C60.6228 1.51691 61.2361 1.51691 62.4665 1.51691C63.2271 6.59804 63.9917 11.6792 64.7523 16.7603H60.9215L59.8264 7.57365C58.6238 9.81556 57.481 12.0256 55.9877 14.0844H55.8921C54.4188 12.0455 53.2918 9.85538 52.1012 7.63737L51.0021 16.7563L51.0061 16.7603Z" fill="white"/>
<path d="M78.5064 1.51691H82.2894C81.5288 6.59804 80.7642 11.6792 80.0037 16.7603C78.7732 16.7603 78.16 16.7603 76.9295 16.7603C75.9539 14.5582 74.7871 12.3641 73.5248 10.3133C72.2585 12.3641 71.0957 14.5542 70.1201 16.7603C68.8897 16.7603 68.2764 16.7603 67.046 16.7603C66.2854 11.6792 65.5208 6.59804 64.7603 1.51691H68.591L69.6861 10.7036C70.8887 8.46166 72.0315 6.2516 73.5248 4.19286H73.6204C75.0938 6.23169 76.2207 8.42183 77.4113 10.6399L78.5104 1.52089L78.5064 1.51691Z" fill="white"/>
<path d="M23.4071 0.0835462C20.8028 -0.239002 19.0706 0.441933 17.5415 1.04323C16.5619 1.42551 15.7177 1.76 14.77 1.76C13.8222 1.76 12.978 1.42949 11.9984 1.04323C10.4693 0.441933 8.73712 -0.239002 6.13284 0.0835462C1.58132 0.641037 0.191571 4.82222 0.0203418 7.71321L0.0123776 7.89639C0.000431408 8.20699 0.000431408 8.49768 0.0123776 8.76846V8.81625C0.00839557 13.9691 2.38172 23.9999 6.72218 23.9999C8.38271 23.9999 9.84812 22.9248 11.2657 21.8894C12.4604 21.0134 13.6948 20.1094 14.766 20.1094C15.8372 20.1094 17.0716 21.0134 18.2662 21.8894C19.6839 22.9287 21.1493 23.9999 22.8098 23.9999C27.1463 23.9999 29.5156 14.0089 29.5236 8.84412C29.6749 6.07259 28.5958 0.720679 23.4071 0.0835462ZM27.3255 8.74855V8.81227C27.3255 14.8372 24.5898 21.8018 22.8058 21.8018C21.866 21.8018 20.6953 20.9457 19.5604 20.1134C18.8237 19.5718 18.0711 19.0223 17.2827 18.6082C12.0383 15.5022 9.14329 14.8172 9.14329 14.8172C9.99545 15.8884 11.1423 17.1189 12.6913 18.3932C11.7356 18.8192 10.8436 19.4723 9.96758 20.1134C8.83667 20.9417 7.66195 21.8018 6.72218 21.8018C5.04573 21.8018 2.53303 15.6455 2.23438 9.90734H2.27022L2.2065 8.74855C2.19456 8.50565 1.93572 2.81127 6.39565 2.26174C8.44642 2.01087 9.78042 2.53253 11.1901 3.08603C12.2772 3.51212 13.4001 3.95413 14.762 3.95413C16.1239 3.95413 17.2468 3.51212 18.3339 3.08603C19.7476 2.53253 21.0816 2.01087 23.1284 2.26174C27.5923 2.81127 27.3334 8.50565 27.3175 8.74457L27.3255 8.74855Z" fill="white"/>
<path d="M23.1521 6.86906C23.9047 7.1717 24.283 7.33098 25.0356 7.61371C24.283 7.90042 23.9047 8.05572 23.1521 8.35836C22.8495 9.11097 22.6902 9.48927 22.4075 10.2419C22.1208 9.48927 21.9655 9.11097 21.6628 8.35836C20.9102 8.05572 20.5319 7.89644 19.7793 7.61371C20.5319 7.327 20.9102 7.1717 21.6628 6.86906C21.9655 6.11645 22.1247 5.73815 22.4075 4.98553C22.6942 5.73815 22.8495 6.11645 23.1521 6.86906Z" fill="white"/>
<path d="M20.3169 11.309C20.8028 11.5042 21.0496 11.6077 21.5355 11.7909C21.0496 11.974 20.8028 12.0776 20.3169 12.2727C20.1218 12.7585 20.0183 13.0054 19.8351 13.4912C19.6519 13.0054 19.5484 12.7585 19.3533 12.2727C18.8675 12.0776 18.6206 11.974 18.1348 11.7909C18.6206 11.6077 18.8675 11.5042 19.3533 11.309C19.5484 10.8232 19.6519 10.5763 19.8351 10.0905C20.0183 10.5763 20.1218 10.8232 20.3169 11.309Z" fill="white"/>
</g>
<defs>
<clipPath id="clip0_168_267">
<rect width="82.2857" height="24" fill="white"/>
</clipPath>
</defs>
</svg>
