<svg width="183" height="40" viewBox="0 0 183 40" fill="none" xmlns="http://www.w3.org/2000/svg">
<g clip-path="url(#clip0_510_3079)">
<path d="M21.4761 -0.00137853C24.4808 0.120867 27.2281 1.44627 30.059 2.20547C32.5683 2.88104 34.8909 2.50787 37.3294 1.80013C40.0124 1.02162 44.8121 -0.972908 46.1246 2.78453C47.0383 5.40959 45.5778 8.07969 43.358 9.47586L43.4352 9.52733L46.6715 8.95471C47.6495 7.88667 48.3572 6.4712 48.4537 5.00425C48.5567 3.38289 47.7717 1.85804 47.4886 0.28815C47.4822 0.243112 47.4307 0.159471 47.4886 0.140169C48.1835 0.461867 48.872 0.796434 49.4832 1.25325C51.5935 2.82314 52.4685 5.67338 52.8932 8.16333C54.7912 8.05395 56.7986 7.90597 58.6966 8.14403C60.3244 8.34348 62.4605 8.89037 62.7758 10.782C63.1618 13.1304 60.6719 14.7968 58.9089 15.8005C56.567 17.1323 53.9998 18.0137 51.4906 18.9531C51.1817 18.9981 50.9308 18.8051 50.9437 18.4899C50.963 17.7886 51.941 17.5698 52.4621 17.2996C54.1928 16.3795 56.0651 15.2857 57.6672 14.1534C58.6838 13.4392 59.8483 12.5963 60.4081 11.4704C60.3823 11.2967 59.0376 11.1165 58.8124 11.1037C57.5449 11.0264 56.078 11.123 54.8105 11.2516C54.1285 11.3224 53.4529 11.4511 52.7645 11.5026C51.2847 18.6636 45.359 23.7142 39.1695 26.9763C34.7494 29.3118 29.6344 30.4699 27.7042 35.6686C27.3889 36.5178 27.1766 37.4315 26.8806 38.3001C26.6876 38.8662 26.456 39.426 26.2501 39.9922C23.4256 38.699 21.296 35.8809 20.0606 33.095C16.1681 24.3062 25.8512 19.5965 32.4074 16.8106L36.4544 15.2021C33.4111 16.0321 30.3872 16.9393 27.3889 17.9172C26.2565 18.284 24.455 18.7536 23.4449 19.2619C22.6342 19.6673 21.1415 21.057 20.4981 21.7454C19.2178 23.1159 18.3106 24.6665 17.3519 26.2685H17.0238L15.6791 22.1701C13.1055 23.2446 10.519 24.319 8.0484 25.5994C6.31123 26.5001 4.51615 27.5231 3.10711 28.8807C4.73491 29.2732 6.54285 29.2861 8.22212 29.2282C10.6091 29.1509 13.202 28.8743 15.5761 28.5783C16.078 28.514 16.8951 28.2631 17.3584 28.3403C17.9632 28.4432 18.1433 29.5692 17.5449 29.8587C14.3859 30.6436 11.2075 31.4157 7.96476 31.7889C5.84798 32.0334 1.23483 32.5674 0.21826 30.116C-0.959157 27.2787 3.14572 24.5957 5.14025 23.3282C8.18352 21.398 11.4584 19.8796 14.7462 18.4126C13.9226 14.6874 13.395 10.9492 13.7811 7.12746C14.2057 2.95825 15.9493 0.268848 20.4016 -0.0078125H21.489L21.4761 -0.00137853Z" fill="white"/>
<path d="M35.8047 30.9115C41.0677 28.7111 46.0154 25.6228 49.9852 21.505C50.0752 21.4214 50.2811 21.6144 50.3069 21.6788C50.3519 21.7817 49.85 23.6347 49.7728 23.9113C48.6083 28.1964 46.9097 32.52 44.3426 36.1616C43.3131 37.6286 42.4445 38.7288 40.7074 39.3915C40.5272 39.4623 40.1412 39.6231 39.9675 39.6424C39.7423 39.6681 39.7809 39.147 39.7423 38.9475C39.2919 36.4512 38.3268 34.2636 36.8341 32.224C36.506 31.7737 36.1264 31.3619 35.8047 30.9051V30.9115Z" fill="white"/>
<path d="M182.39 27.3062C182.351 27.3706 182.319 27.4027 182.242 27.4285C181.412 27.7373 179.237 27.5057 178.266 27.4992C177.056 27.4864 175.86 27.5185 174.656 27.4478C174.187 27.422 173.801 27.4864 173.35 27.2483C173.202 26.7851 173.698 26.7786 173.916 26.5663C174.064 26.4248 173.981 26.0645 173.897 25.8907L168.525 16.3942L168.364 16.5293L163.185 25.228C162.998 25.8586 162.638 26.5084 163.513 26.7465C163.783 26.8237 164.581 26.8365 164.716 26.9266C164.973 27.0939 164.87 27.5314 164.478 27.5636C163.957 27.6086 163.403 27.5185 162.895 27.5121C161.267 27.4928 159.627 27.4864 157.999 27.5121C157.639 27.5121 156.326 27.7823 156.294 27.2419C156.262 26.7014 157.175 26.8558 157.51 26.8237C159.253 26.6564 160.212 24.8227 161.184 23.5809L167.354 14.4576C167.129 14.0715 166.955 13.6533 166.736 13.2609C164.954 9.99883 162.876 6.87192 161.068 3.62277C160.399 2.67697 159.588 1.98854 158.436 1.70544C157.986 1.59607 157.523 1.57033 157.066 1.49956C156.976 1.42235 156.86 1.21646 156.918 1.10065C157.059 0.978405 157.214 0.843291 157.413 0.849725C160.019 0.901197 162.618 0.939801 165.224 0.901197C165.765 0.894763 166.363 0.778952 166.903 0.849725C167.199 0.888329 167.27 1.3001 167.109 1.43522C166.936 1.58963 165.835 1.43522 165.462 1.84056C165.095 2.2459 165.565 3.14022 165.777 3.55199C167.019 6.00977 168.621 8.39034 169.895 10.8417L170.011 10.9253C171.259 8.93723 172.61 7.0006 173.781 4.96747C174.026 4.54282 174.29 4.10531 174.508 3.6678C174.914 2.86356 175.506 1.75048 174.148 1.55746C173.865 1.51886 172.765 1.67971 172.861 1.17786C172.964 1.05561 173.151 0.811121 173.318 0.804688C173.389 0.804688 173.479 0.849725 173.563 0.849725C175.229 0.849725 176.895 0.914065 178.555 0.894763C179.167 0.888329 179.964 0.785386 180.537 0.843291C180.724 0.862593 180.833 0.933367 180.994 1.00414V1.43522C180.363 1.52529 179.617 1.52529 179.025 1.80839C178.343 2.13009 177.577 3.29463 177.133 3.91873C175.081 6.83332 173.228 9.89589 171.182 12.8169L178.137 24.5074C178.735 25.5369 179.598 26.4891 180.827 26.7079C181.219 26.7786 181.779 26.7593 182.139 26.8751C182.255 26.9137 182.3 26.9717 182.371 27.0617V27.3062H182.39Z" fill="white"/>
<path d="M102.029 0.6875C105.973 4.90819 109.775 9.30259 113.938 13.3303L120.758 20.7358C120.906 20.7679 120.887 20.4977 120.887 20.4141C120.79 16.1097 120.687 11.7861 120.584 7.48177C120.552 6.11134 120.745 3.7565 120.25 2.53405C119.754 1.3116 118.255 1.54965 117.162 1.42097C116.685 1.0285 117.232 0.738972 117.644 0.738972C118.564 0.738972 119.536 0.829047 120.456 0.841915C121.839 0.854783 123.19 0.816179 124.554 0.790444C125.088 0.777576 125.732 0.706802 126.201 0.951293C126.362 1.70407 125.442 1.44671 124.966 1.49818C123.859 1.62043 123.55 2.3539 123.402 3.34473C123.229 4.53501 123.325 5.7446 123.3 6.94775C123.19 11.9984 123.081 17.0491 123.055 22.1062C122.875 23.8112 123.113 25.6963 122.959 27.3885C122.881 28.2313 122.334 28.1027 121.768 27.7359C120.629 26.5842 119.439 25.484 118.287 24.3516C112.967 19.1208 108.025 13.5361 103.02 8.00293C102.988 8.51764 102.981 9.04523 102.994 9.55995C103.078 13.8643 103.206 18.1943 103.341 22.4922C103.374 23.5667 103.2 25.4647 103.978 26.3011C104.557 26.9252 105.477 26.8094 106.23 26.8673C106.603 26.8931 107.022 26.9059 106.874 27.3692C106.816 27.5429 106.591 27.6008 106.43 27.6137C105.542 27.6973 104.596 27.5751 103.715 27.5622C101.662 27.53 99.6354 27.5622 97.583 27.5622C97.3513 27.5622 97.2484 27.2083 97.3642 27.0475C97.5379 26.7966 98.5416 26.8995 98.8569 26.8609C99.0756 26.8352 99.6225 26.6872 99.7834 26.5521C100.626 25.8572 100.446 23.3158 100.472 22.2992C100.613 16.084 100.736 9.84947 100.819 3.63426C100.832 2.78497 100.723 1.66546 100.819 0.861217C100.826 0.790444 100.819 0.732538 100.896 0.693934H102.035L102.029 0.6875Z" fill="white"/>
<path d="M81.6915 0.751709C88.6852 0.365671 94.9776 3.35103 96.2129 10.7501C97.6992 19.6612 92.4298 27.3369 83.1648 27.7036C77.5351 27.9224 72.2078 25.13 70.194 19.7255C66.874 10.8209 71.8475 1.29216 81.6979 0.751709H81.6915ZM81.6915 2.43098C75.3283 2.67547 73.6104 8.62689 73.842 14.0507C74.1123 20.2595 77.7088 26.3074 84.6382 25.8764C91.8636 25.426 92.6164 15.3311 91.1108 10.0231C89.9012 5.75734 86.3561 2.25082 81.6915 2.43098Z" fill="white"/>
<path d="M137.816 1.37648C137.378 1.67245 136.529 1.61454 136.6 2.33515C136.651 2.81126 137.095 3.64124 137.32 4.08519C139.006 7.36008 141.013 10.487 142.706 13.7683C142.738 13.8133 142.763 13.897 142.841 13.8841C142.976 13.852 143.96 11.6773 144.127 11.362C145.395 8.94283 146.765 6.57513 148.02 4.14309C148.091 3.57047 148.586 2.71475 148.387 2.16786C148.322 2.00058 148.001 1.68531 147.846 1.62097C147.64 1.53733 147.081 1.5888 147.061 1.26067C147.029 0.668747 148.117 0.93254 148.47 0.938974C149.114 0.951842 149.764 0.893936 150.394 0.990445C151.803 1.08695 153.463 0.765256 154.846 0.887502C155.104 0.913238 155.175 0.93254 155.162 1.20277C155.136 1.63384 154.486 1.52446 154.119 1.59524C152.344 1.92337 151.346 3.47396 150.42 4.8637C149.41 6.38211 148.464 8.01634 147.544 9.5991C146.637 11.1626 145.491 12.9962 144.777 14.6369C143.857 16.7537 144.127 20.6913 144.198 23.0397C144.237 24.3007 143.902 26.5526 145.607 26.7714L147.705 26.9451C147.988 27.1445 147.962 27.3762 147.673 27.5499C145.202 27.5885 142.738 27.4855 140.267 27.5113C139.353 27.5177 138.086 27.685 137.205 27.5627C136.883 27.5177 136.754 27.0545 137.018 26.9773C137.398 26.8679 138.015 26.8872 138.433 26.81C139.585 26.6041 139.604 25.6776 139.701 24.6675C139.894 22.6279 139.92 19.8548 139.804 17.8024C139.682 15.6277 138.768 14.2251 137.732 12.4107C136.548 10.3454 135.3 8.24153 134.039 6.2277C133.003 4.56773 131.787 2.2129 129.78 1.64671C129.458 1.55663 128.634 1.69818 128.68 1.21563C128.692 1.10626 129.027 0.906804 129.149 0.893936C129.78 0.810294 130.719 1.00975 131.375 0.996879C132.578 0.971143 133.782 1.02262 134.985 0.996879C135.789 0.984011 136.645 0.829596 137.455 0.893936C137.578 0.906804 137.7 0.913238 137.803 0.990445L137.816 1.37648Z" fill="white"/>
<path d="M88.9621 39.2042C89.0522 37.6085 89.1036 36.0065 88.9621 34.4173L89.8307 34.3594L92.4686 37.8209L92.4171 34.3658H93.2793L93.3436 34.4495C93.4015 34.6489 93.305 34.8419 93.2986 35.0349C93.26 36.2767 93.4401 37.8595 93.2986 39.0369C93.2921 39.1076 93.2986 39.1656 93.2214 39.2042H92.4815L89.8371 35.7942V39.2042H88.9492H88.9621Z" fill="white"/>
<path d="M150.103 39.2042L150.039 39.1205C150.161 37.5571 150.103 35.9872 150.084 34.4173L150.895 34.3594L153.539 37.8209C153.526 37.1389 153.558 36.4504 153.539 35.7684C153.533 35.3824 153.436 34.9384 153.488 34.5331C153.494 34.4623 153.488 34.4044 153.565 34.3658H154.356C154.536 34.5974 154.388 34.9706 154.382 35.228C154.343 36.5534 154.414 37.8788 154.382 39.2042H153.565L150.921 35.7942V39.2042H150.103Z" fill="white"/>
<path d="M70.5859 39.2055V34.3672H72.6384C74.6715 34.3672 75.3985 36.8378 74.382 38.3305C74.1632 38.6522 73.5327 39.2055 73.1338 39.2055H70.5924H70.5859ZM71.4738 35.1779V38.3884C71.7376 38.5686 72.3553 38.5428 72.6834 38.5171C74.2404 38.3756 74.4978 35.6282 72.8957 35.1393C72.6705 35.0685 71.5446 34.9527 71.4738 35.1779Z" fill="white"/>
<path d="M181.006 39.2055H180.041C179.732 38.8066 179.629 38.1053 179.365 37.7064C179.333 37.6549 179.192 37.5263 179.147 37.5263H178.182C178.027 37.8608 178.317 38.961 178.156 39.2055C178.117 39.2634 178.079 39.2441 178.021 39.2441C177.757 39.2184 177.506 39.1798 177.242 39.2055L177.319 34.3672H179.642C180.221 34.3672 180.845 35.0621 180.903 35.6282C180.98 36.4068 180.781 36.8829 180.182 37.3526L181.006 39.2055ZM178.136 36.8378H179.494C179.494 36.8378 179.809 36.6706 179.841 36.6384C180.118 36.3875 180.086 35.654 179.867 35.3773C179.597 35.0428 178.503 34.9462 178.136 35.1779V36.8314V36.8378Z" fill="white"/>
<path d="M111.789 39.2102H110.876C110.657 39.03 110.631 38.303 110.406 38.2001C110.316 38.155 108.746 38.1486 108.553 38.1743C108.206 38.2129 108.251 39.0043 108.013 39.2166H107.15L108.991 34.3654C109.061 34.211 109.248 34.3397 109.402 34.3332C109.608 34.3332 109.814 34.2046 109.917 34.4104L111.802 39.2166L111.789 39.2102ZM109.467 35.4077C109.338 35.3884 109.389 35.4206 109.364 35.4785C109.267 35.6972 108.695 37.1964 108.727 37.3057C108.797 37.5181 109.936 37.4408 110.155 37.3379L109.467 35.4141V35.4077Z" fill="white"/>
<path d="M169.445 38.3434C169.464 38.4206 169.625 38.5042 169.715 38.5171C170.332 38.6007 171.117 38.4592 171.748 38.427C171.909 38.4592 171.729 39.1348 171.69 39.257L168.557 39.2055V34.3672L171.587 34.3736L171.658 34.4508L171.716 35.1071C171.053 35.1714 170.371 34.9849 169.715 35.0556C169.618 35.0685 169.445 35.1071 169.445 35.2293V36.2652C169.445 36.2652 169.573 36.3746 169.625 36.3746L171.619 36.2909V37.0051C171.619 37.2303 171.246 37.0823 171.104 37.0759C170.68 37.063 170.017 37.0309 169.618 37.0759C169.547 37.0823 169.49 37.0759 169.451 37.1531C169.509 37.4684 169.374 38.0667 169.451 38.3369L169.445 38.3434Z" fill="white"/>
<path d="M81.1568 36.2703C81.1697 36.3089 81.2855 36.3732 81.337 36.3796L83.2994 36.296C83.4731 36.3475 83.2736 36.8879 83.3251 37.0488L83.2479 37.126C82.9391 37.1067 81.382 36.9973 81.2276 37.126C81.1247 37.2096 81.144 37.9238 81.1568 38.0975C81.1633 38.2069 81.1762 38.3613 81.2598 38.4385C81.382 38.5608 82.3343 38.5222 82.5723 38.5157C82.7203 38.5157 83.5632 38.3742 83.5825 38.4964L83.4023 39.2556L80.2754 39.2042L80.3783 36.9072L80.2754 34.3594H83.3058C83.4538 34.4173 83.4409 34.9513 83.4345 35.0993C82.7782 35.1636 82.0769 34.9899 81.4335 35.0478C81.2984 35.0607 81.1633 35.1057 81.1633 35.273C81.1633 35.4789 81.1247 36.1287 81.1633 36.2638L81.1568 36.2703Z" fill="white"/>
<path d="M142.223 36.2652C142.28 36.4454 142.583 36.336 142.692 36.336C143.155 36.336 143.619 36.3553 144.082 36.336C144.256 36.336 144.449 36.1816 144.455 36.4582C144.455 36.5676 144.397 37.0952 144.32 37.1209C144.217 37.1531 144.056 37.0759 143.934 37.0759C143.696 37.0695 142.396 37.0437 142.3 37.1209C142.197 37.2046 142.216 37.9187 142.229 38.0925C142.235 38.2018 142.248 38.3563 142.332 38.4335C142.557 38.6522 144.648 38.3627 144.655 38.4849L144.545 39.1669L144.468 39.2377L141.335 39.1927C141.341 38.9353 141.322 38.6779 141.335 38.427C141.347 37.9895 141.431 37.4812 141.438 37.0502C141.45 36.1687 141.335 35.2744 141.36 34.4058L144.371 34.3672C144.513 34.4122 144.487 34.8819 144.545 35.0235C144.513 35.1007 144.449 35.0942 144.378 35.1007C143.94 35.1457 142.621 34.9398 142.358 35.1007C142.325 35.12 142.229 35.2422 142.229 35.2679C142.229 35.4738 142.184 36.1172 142.229 36.2588L142.223 36.2652Z" fill="white"/>
<path d="M133.96 34.2831C134.72 34.1802 135.64 34.3796 136.039 35.0938L135.627 35.7501C135.273 35.4863 135.074 35.1646 134.591 35.1131C132.249 34.8558 132.571 39.0314 134.726 38.4588C135.106 38.3558 135.324 38.0985 135.633 37.8797C135.762 37.8797 136 38.3108 136.084 38.4202C135.505 39.4367 133.909 39.6105 133.021 38.9156C131.49 37.7253 131.927 34.5662 133.973 34.2896L133.96 34.2831Z" fill="white"/>
<path d="M102.151 34.3672V35.1071H100.992C100.992 35.1071 100.954 35.0492 100.915 35.0814C100.864 35.12 100.87 35.1779 100.864 35.2293C100.774 36.188 100.89 37.2367 100.915 38.1954C100.922 38.53 100.902 38.871 100.915 39.212H99.9759V35.0621C99.8215 35.0942 98.7406 35.1779 98.6891 35.1393C98.5604 35.0492 98.7985 34.5409 98.7406 34.3672H102.151Z" fill="white"/>
<path d="M161.041 39.2055V35.0556C160.887 35.0878 159.806 35.1714 159.754 35.1328C159.632 35.0428 159.851 34.5666 159.825 34.4122L163.209 34.3672C163.164 34.5602 163.254 34.8304 163.248 34.9977C163.248 35.0556 163.229 35.0749 163.184 35.1071H162.096C162.096 35.1071 162.025 35.0428 161.974 35.0556C161.832 36.4325 161.987 37.8222 161.974 39.2055H161.035H161.041Z" fill="white"/>
<path d="M117.954 34.3791V38.5226L120.251 38.4325L120.334 38.5483L120.225 39.2561L117.072 39.211C117.105 37.6218 117.13 36.0391 117.027 34.4499C117.085 34.2698 117.388 34.4177 117.497 34.4113C117.645 34.4113 117.799 34.3277 117.954 34.3727V34.3791Z" fill="white"/>
</g>
<defs>
<clipPath id="clip0_510_3079">
<rect width="182.39" height="40" fill="white"/>
</clipPath>
</defs>
</svg>
