<svg width="80" height="80" viewBox="0 0 80 80" fill="none" xmlns="http://www.w3.org/2000/svg">
<g clip-path="url(#clip0_515_10647)">
<path d="M27.744 41.8139C26.7056 39.0707 27.138 35.813 28.9364 33.6658C29.8995 32.6404 31.2295 32.1443 32.173 31.378C34.2106 29.9305 34.9771 27.2614 36.602 25.4104C38.8328 22.2156 43.5337 19.5353 46.8751 22.3229L46.8161 22.8042C42.8753 25.2882 40.4577 29.1309 36.0058 30.645C34.8035 31.104 33.8142 31.552 33.1001 32.533C32.3728 33.4733 32.1927 34.8875 31.8814 35.9574C30.9773 38.2637 29.857 39.9407 28.1601 41.9028L27.7375 41.8102L27.744 41.8139Z" fill="#DCAE5B"/>
<path d="M46.5393 64.907C45.1143 66.6987 43.2307 67.5909 41.2226 67.1319C40.2759 66.8061 39.3881 65.988 38.5069 65.7177C36.6495 65.1217 34.4579 66.2989 32.5743 65.3401C28.807 64.1259 27.1757 59.5835 29.6817 56H30.1108C30.8053 56.9847 31.3327 57.8658 31.7979 58.5507C32.1419 59.006 32.3777 59.391 32.7741 59.5576C33.996 60.6941 35.0181 61.8121 36.2989 63.1041C36.9705 63.7927 37.7993 64.2295 38.6641 64.1629C39.5355 64.137 40.4167 63.3892 41.2357 63.0856C43.0997 62.6266 44.7409 63.1856 46.4803 64.4257L46.5393 64.907Z" fill="#DCAE5B"/>
<path d="M58.4158 60.5562C59.6082 57.8352 60.4403 55.2549 61.4984 52.5044C63.0937 48.6506 65.0298 45.4558 65.5506 41.2096C65.5474 38.7144 67.2672 36.8708 67.9682 34.72C69.3572 30.5886 59.1103 24.8246 56.4372 22.8847C51.1565 19.0198 46.2885 15.8287 39.3732 16.1397L39.252 15.6732C44.0544 12.2748 50.6847 13.03 55.5068 16.1471C61.2822 20.2045 67.2639 24.8801 69.4194 32.5395C69.8158 34.4386 68.9149 35.7899 68.3646 37.3336C68.0141 38.2665 67.6505 39.2105 67.7258 40.1582C68.1255 41.9426 68.3875 44.0527 68.1255 46.0185C67.7782 49.2392 65.9208 51.8972 64.4008 54.3739C62.8972 56.732 61.1872 59.3826 58.7172 60.8968L58.4092 60.5562H58.4158Z" fill="#DCAE5B"/>
<path d="M68.3996 11.4252C71.2922 10.4923 74.6402 12.9837 75.5541 16.0193C75.9669 17.8814 75.3608 19.3844 75.5279 20.7246C75.9734 23.5862 78.5286 25.5001 79.1117 28.3581C80.6284 32.6339 80.2288 37.5612 77.7293 41.3817L77.3034 41.3113C75.8752 36.9467 75.3346 33.6223 75.1512 29.365C74.8891 26.6737 75.2396 23.6862 74.1783 21.0837C73.6508 19.403 72.7696 18.222 71.9179 17.2521C71.5707 16.8005 70.8074 15.5899 70.4765 15.0975C69.8115 14.0832 69.2481 13.0948 68.3145 11.899L68.4029 11.4252H68.3996Z" fill="#DCAE5B"/>
<path d="M73.3505 66.5814C69.5735 73.9039 62.4353 81.9224 54.2064 79.5902C50.3244 78.7202 47.0224 76.6656 43.432 76.0215C41.7056 75.6476 39.8908 76.0733 37.8958 75.9659C33.9779 75.7216 30.7249 72.7193 27.3639 71.1274C25.7161 70.2834 23.9701 69.4171 22.2208 68.1325C19.6263 66.4925 17.1333 62.4907 16.8745 59.0404C16.3242 56.064 15.2366 53.5541 14.4471 50.4185C12.1802 43.6253 15.4561 37.3209 17.687 31.2422L18.1128 31.3125C18.2733 35.6587 16.927 39.9345 17.1563 43.5846C17.3004 47.1274 19.1578 50.4481 20.5632 54.661C21.1921 56.3047 21.4902 59.0404 21.8899 60.573C23.0659 63.9382 26.2828 65.6744 29.0346 67.7179C32.1925 69.8613 34.3775 73.6596 38.0367 74.3222C39.7368 74.6036 41.6368 74.2408 43.5991 74.4629C59.5591 76.3102 59.9162 77.4097 73.0393 66.2445L73.3505 66.5777V66.5814Z" fill="#DCAE5B"/>
<path d="M55.9912 1.44178C50.5434 1.83419 45.1219 5.34738 39.4874 5.17339C33.9381 5.14748 29.3027 6.22475 24.2939 9.75275L21.8796 11.389C19.3605 12.9291 17.9682 15.4168 16.1534 17.9564C14.2796 20.507 12.3894 22.3469 10.9644 25.0198C8.8875 28.6477 4.97939 32.7532 4.59938 36.8661C4.59611 38.2655 5.19887 40.2127 5.65749 42.4043C6.16197 44.2701 6.08663 47.1836 5.96542 49.2086C5.84421 53.303 5.82128 57.2789 7.73439 60.9365L7.41663 61.2622C3.39386 57.8416 2.7649 51.4779 2.24731 46.2433C1.83455 43.0336 0.262134 40.9901 0.013168 37.0512C-0.127694 34.4376 1.0811 31.7833 2.36197 29.7398C4.42904 26.5154 6.74835 24.1498 8.86784 21.1734C10.4927 19.1114 12.7792 17.6602 14.486 16.0869C17.2279 13.1919 20.2613 10.6153 23.547 8.44225L28.1201 4.6403C32.8669 0.101663 39.0877 1.08269 44.7059 0.645856C48.3257 0.227531 52.509 -0.720178 56.0698 0.964227L55.9912 1.44178Z" fill="#DCAE5B"/>
<path d="M41.8647 33.292C43.3847 32.3516 45.3339 32.8255 46.5361 34.0842C47.1028 34.7579 47.4272 35.6982 47.912 36.3535C49.3403 37.9454 51.1256 39.7038 51.1518 42.2397C51.463 45.6344 48.4263 46.2674 46.1659 46.534L45.9497 46.323C46.1332 45.3012 46.7851 44.509 47.2765 43.9167C48.3247 42.7172 48.1053 42.7394 48.2265 41.2623C48.3247 38.2008 48.2035 36.9088 45.2258 36.3424C43.8466 35.7094 43.0408 34.7839 41.8418 33.614L41.8647 33.292Z" fill="#DCAE5B"/>
<path d="M43.4805 48.1084C43.5296 50.0964 41.3479 52.6545 39.5265 51.2477C38.2522 49.9446 38.8648 48.6378 39.0712 47.2311C39.3332 47.5272 39.402 47.2311 38.9107 47.257C38.3898 47.257 37.8296 47.505 37.2629 47.5976C37.1253 47.5939 36.9156 47.7123 36.5258 47.3532C36.1622 46.835 36.3096 46.5055 36.3391 46.25C36.4406 45.8132 36.706 45.369 36.765 45.0395C36.7813 44.9618 36.7519 44.9062 36.6896 45.0025C36.6634 45.0099 36.6208 45.2579 36.6208 45.269C36.3096 44.3213 36.0443 43.3107 35.9296 42.2149C35.5988 39.1941 38.1408 37.4763 40.3455 39.394C41.135 39.9715 41.6132 40.7193 42.347 41.2153L42.3831 41.5374C41.0662 42.3 39.7165 41.5818 38.5896 41.7632C38.511 41.7929 38.5339 41.8447 38.6846 41.8151C38.8255 41.7706 38.9532 41.6485 38.986 41.5892C38.9663 41.8373 38.8582 42.8664 38.8943 43.3884C38.891 44.0733 38.9532 45.0395 38.7272 45.7688C38.452 46.3796 38.0229 46.6684 37.6134 46.8646C37.5643 46.8202 37.6593 46.772 37.4431 46.4389C37.2007 46.2463 37.2301 46.387 37.2956 46.387C38.1867 46.6017 38.7239 46.0057 39.71 46.1242C40.6076 46.5758 41.0039 48.2528 41.2955 49.1635C41.3151 49.3042 41.3872 49.2487 41.1219 48.9895C40.9941 48.8748 40.7845 48.8081 40.6927 48.8229C41.2136 49.0154 42.2815 48.3639 43.2414 47.9271L43.4838 48.0973L43.4805 48.1084Z" fill="#DCAE5B"/>
</g>
<defs>
<clipPath id="clip0_515_10647">
<rect width="80" height="80" fill="white"/>
</clipPath>
</defs>
</svg>
