<svg width="80" height="80" viewBox="0 0 80 80" fill="none" xmlns="http://www.w3.org/2000/svg">
<g clip-path="url(#clip0_515_10638)">
<path d="M79.7936 23.1059C80.7502 27.1753 78.1688 31.1095 76.6127 34.4C74.9519 39.427 70.8734 42.3638 68.3543 46.449C66.487 50.3316 66.5722 55.5375 62.3529 58.0928C61.9008 58.4266 60.7117 59.1538 60.2399 59.4717C55.5555 62.7463 50.3272 63.2947 45.6525 66.613L45.3184 66.2752C46.1308 63.6484 47.9423 61.5104 49.803 59.9526C52.9642 57.3655 56.3155 55.3031 59.8894 53.7254C62.0679 53.0339 63.1718 51.2099 65.0358 48.4996C66.297 46.4212 68.0562 44.3746 69.3829 42.4552C70.9946 39.892 71.4401 36.7168 72.4393 33.8714C73.9789 29.4365 77.5922 27.2548 79.3645 23.0781L79.8002 23.1059H79.7936Z" fill="#DCAE5B"/>
<path d="M41.0606 79.9992C39.6553 76.8955 39.6815 73.2355 38.8134 70.7915C37.6046 68.0415 36.9298 64.5484 36.4744 61.6434C35.9929 56.7594 32.0717 54.689 28.6549 53.0914C27.4691 52.3404 26.3848 52.396 25.1039 52.5828C23.1449 52.9365 20.6815 53.6756 18.5128 52.8371C15.8103 51.8992 13.6809 49.5109 11.3158 48.2829C7.84989 46.8523 4.80661 43.3989 2.93609 40.0767C1.32764 37.4817 -0.742712 33.766 0.266256 30.3047L0.698671 30.3484C1.31453 33.5157 3.39471 35.1172 5.42247 37.2114C7.69265 39.5839 9.88421 41.5391 12.6065 42.7909C15.9249 44.2017 17.9363 48.1518 21.2613 48.9943C23.0139 49.4552 25.4217 49.5188 27.3282 50.2938C29.3494 51.2793 30.8661 52.6821 32.9398 53.5405C39.1508 55.9606 40.3694 60.0061 41.5193 67.2189C42.9017 71.4234 41.9058 75.6755 41.4865 79.872L41.0606 79.9873V79.9992Z" fill="#DCAE5B"/>
<path d="M17.2278 12.796C19.6028 16.9011 19.3834 21.7812 22.0401 24.7259C23.7829 26.4466 25.768 27.1619 27.763 29.0734C30.4165 31.4617 31.4517 35.7616 33.9905 38.1221C37.0731 40.4827 41.3219 40.9993 44.7582 39.7395C46.7696 38.8335 49.1053 37.8241 50.9627 36.6518C56.6071 33.4607 58.399 26.5618 61.8681 20.5174C63.4667 17.7953 64.3545 13.7696 66.3593 10.5547L66.7557 10.7733C66.1398 14.5565 66.2512 18.3397 64.9016 22.4567C63.6928 25.9419 62.6805 29.5582 60.8788 33.1626C57.7864 39.6958 51.2084 42.6405 45.2955 43.2843C42.7239 43.5307 40.1556 42.6644 37.8036 41.7702C36.4081 41.1662 34.4458 40.5462 33.201 39.5329C30.4853 37.5221 28.5165 34.4859 25.7517 32.7453C20.2515 29.7172 16.9297 26.7446 16.9854 18.7331C16.9166 16.7779 16.9625 14.9221 16.8184 12.9868L17.2246 12.8L17.2278 12.796Z" fill="#DCAE5B"/>
<path d="M55.576 0.0794794C56.5719 4.68134 54.7767 10.0939 51.4419 12.6213C49.7253 13.8572 47.7467 14.2308 46.0105 14.8785C44.2055 15.5581 42.2301 16.3211 40.2875 15.9714C38.2631 15.7528 36.5039 14.9143 35.0494 14.3858C31.8653 13.6347 29.2511 10.9165 27.5149 7.77309C27.3282 7.35185 26.9515 7.02201 26.5485 6.63256C25.2972 5.32909 22.5061 3.48517 23.2235 0.937857L23.656 1.00541C24.013 1.91148 24.7992 1.91148 25.5199 2.17774C27.3479 2.62679 29.4837 3.10367 30.9448 4.86017C32.3141 6.1835 33.9324 8.05524 35.4262 9.06065L35.8946 9.36267C37.8503 10.3403 39.521 12.0491 40.9755 13.2015C44.0417 15.6932 47.4093 12.0809 49.1586 9.19179C51.2748 6.56897 53.07 3.81899 55.1436 0L55.5727 0.0794794H55.576Z" fill="#DCAE5B"/>
</g>
<defs>
<clipPath id="clip0_515_10638">
<rect width="80" height="80" fill="white"/>
</clipPath>
</defs>
</svg>
