<svg width="80" height="80" viewBox="0 0 80 80" fill="none" xmlns="http://www.w3.org/2000/svg">
<g clip-path="url(#clip0_515_10660)">
<path d="M38.7336 15.6679C37.7312 15.0662 36.9974 15.3414 36.0573 14.6405C34.5635 13.8148 33.941 11.2736 35.389 9.94855C35.3398 10.0158 35.3791 10.0926 35.484 10.0638C35.9426 9.95496 36.9319 8.9756 37.2398 8.06665C37.479 7.47776 37.5674 6.65523 37.9311 5.99592C38.1767 5.57025 38.2717 5.30141 38.4093 4.86294C38.7238 3.46432 39.4707 2.22252 40.4174 1.14395C40.5517 1.01273 40.4567 1.01593 41.0038 0.644667C41.9407 -0.030641 43.4312 -0.139459 44.4533 0.151788C47.015 0.91351 47.7881 2.51697 49.1804 3.76517L49.4949 4.18443C48.3975 6.07594 44.9021 5.63106 43.3035 5.58626C42.9661 5.59586 43.2871 5.55745 43.4247 5.52225C43.6049 5.45184 43.8178 5.36542 43.9849 5.2438C44.3157 4.96856 44.0536 5.14459 44.0078 5.16059C42.4943 6.08234 41.5869 6.508 39.7328 7.1385C39.5002 7.25052 39.4576 7.16731 39.2905 7.31133C38.1767 8.70996 39.9162 9.71812 39.5493 11.7952C39.474 12.1953 39.2512 12.6626 38.9007 13.0883C39.0776 12.9538 39.1169 12.8322 39.2414 12.557C39.4183 12.2049 39.189 11.3248 39.1104 11.5808C39.3757 12.7458 40.4142 14.5253 39.2611 15.7351L38.7336 15.6647V15.6679Z" fill="#DCAE5B"/>
<path d="M54.7205 16.189C56.08 15.4977 57.7736 16.0545 59.0053 16.3618C60.2829 16.7171 59.6507 16.317 61.2526 16.5858C62.8053 17.0211 64.5252 17.6132 66.2155 17.6068C67.9386 18.0357 69.5831 19.6583 71.2211 19.7095C71.1228 19.4407 70.4054 19.5623 70.2514 19.6039C69.7404 19.7735 69.8517 19.7319 69.8681 19.6135C71.1588 17.0019 73.334 14.3487 76.2823 13.2061C76.6754 13.0877 77.3076 12.9532 77.7531 13.2989L77.6123 13.7982C77.0128 16.9251 76.6262 20.8297 73.7992 23.1245C71.2538 25.5537 68.0304 24.1678 67.1033 20.9737C66.7528 20.1928 66.4907 19.1718 65.6259 19.1206C63.7488 19.3255 62.2124 21.2682 60.129 21.169C57.1053 21.1082 55.9752 18.823 54.6484 16.7107L54.7205 16.1954V16.189Z" fill="#DCAE5B"/>
<path d="M78.5661 48.1026C77.8388 47.8465 77.5997 48.2114 77.1902 48.3458C75.3 49.1715 72.4729 47.6481 72.6793 45.3181C72.6302 42.7801 74.8578 42.1304 76.0535 40.5878C76.6759 39.7268 76.9216 38.549 76.6661 37.6049C76.6005 37.4033 76.499 37.1792 76.3745 37.2816C76.1714 37.4545 76.5383 38.1906 76.8168 38.3762C77.0068 38.565 77.6455 38.7123 77.354 38.8755C74.9921 40.6774 69.3936 42.5465 68.4109 38.1778C68.0767 36.6799 68.6009 35.8382 68.555 34.5996L68.9154 34.2188C70.4845 34.5132 71.4509 35.915 72.129 36.3023C72.3288 36.4175 72.4926 36.5039 72.5974 36.3759C72.4697 36.1583 72.0143 35.9214 71.8505 35.8734C71.7752 35.8286 71.6867 35.7966 71.5983 35.7774C71.1757 35.6654 71.9062 35.4605 72.0897 35.3421C74.219 34.462 80.0304 33.0602 79.9943 37.048C79.634 38.8435 77.9076 39.762 77.603 41.3015C77.2786 42.3384 77.5571 43.6859 77.5342 44.6684C77.5243 45.1197 77.4457 45.6254 77.3999 45.5518C77.3769 45.3437 77.1542 44.694 76.8823 44.5724C76.5547 44.8476 77.3704 45.1901 77.9862 45.6926C78.648 46.0958 79.3752 47.1168 79.0574 47.9073L78.5628 48.0994L78.5661 48.1026Z" fill="#DCAE5B"/>
<path d="M69.5962 55.3712C70.0286 56.0849 69.5896 57.0322 69.2096 57.6307C68.335 58.9749 66.8805 60.1847 65.4194 60.428C64.8658 60.4568 64.2958 60.4568 63.8568 60.3448C63.6963 60.3384 63.7291 60.1655 63.6308 60.1591C62.8675 61.9482 65.7372 62.9628 65.9698 64.9311C66.2908 66.3329 66.8608 67.5907 66.8837 69.1526C66.9525 71.569 65.6684 73.1884 64.3613 75.1983L63.847 75.3232C62.1305 73.9277 61.9044 71.9914 61.3574 70.1991C60.9774 68.6405 61.1215 66.4865 61.7046 64.8991C61.8749 64.7807 62.1075 64.387 62.1763 63.9133C62.4515 62.7163 61.9274 61.3273 61.6063 60.0311C61.5801 58.7381 62.5793 57.4323 63.3229 56.6098C65.3179 54.9455 67.4767 55.4192 69.5994 55.3712H69.5962Z" fill="#DCAE5B"/>
<path d="M33.1712 79.4036C33.299 76.904 34.6159 74.75 37.23 74.9324C37.8819 74.782 38.5076 74.782 38.9761 74.7372C40.3716 74.798 42.3732 73.2906 43.0676 72.5609C43.0971 72.4969 43.1037 72.4392 43.0513 72.4104C43.048 72.3784 42.953 72.4328 43.0283 72.3528L43.3756 72.0264C45.4951 70.2021 47.6833 70.8934 50.1927 71.4407L50.5399 71.8343C50.3663 73.8187 48.5482 75.2717 47.2411 76.171C46.943 76.3631 46.7432 76.4399 46.468 76.4911C45.9963 76.7695 45.3542 77.0608 44.8628 77.1472C42.6287 77.9025 41.2004 75.611 39.4445 76.3503C38.8975 76.6863 38.9925 77.8833 38.5338 78.4818C37.3447 79.9925 35.5397 80.2421 33.4857 79.8228L33.168 79.4068L33.1712 79.4036Z" fill="#DCAE5B"/>
<path d="M6.00881 60.3457C7.47968 59.3888 9.22572 60.3073 10.5655 60.861C10.8342 60.941 10.6933 60.9154 10.6343 61.0819C12.8423 61.6132 12.4721 63.9111 14.2837 64.5224C14.644 64.6376 15.0535 64.5224 15.1092 64.2888C15.0338 63.8375 15.2075 63.2998 15.7971 62.6501C16.6652 61.6163 17.3663 60.797 19.1811 60.5058C20.1016 60.4322 19.5971 60.5058 19.6757 60.5506C20.059 60.9282 21.6904 60.3297 22.5192 60.4226C23.1318 60.4322 23.8623 60.5154 24.4028 60.925L24.4356 61.4435C23.574 62.8645 23.5478 64.2248 21.9951 65.2361C21.7002 65.441 21.3432 65.633 20.8845 65.7738C20.534 65.9338 19.5807 65.9882 20.0623 65.985C20.3669 65.9626 20.2392 65.9242 19.9869 66.0267C19.1713 66.2923 18.4113 66.8556 17.3892 67.118C16.7635 67.2973 15.8659 67.3933 14.9749 67.1276C13.2387 66.5067 12.7866 64.692 10.8866 64.9193C10.4574 64.9673 10.1364 65.1945 10.2773 65.4026C10.1692 65.4314 9.79899 65.425 9.57296 65.3962C7.89899 65.1689 6.66071 63.7255 6.36588 62.2469C6.24795 61.8436 6.24795 61.4211 5.95312 60.861L6.00881 60.3457Z" fill="#DCAE5B"/>
<path d="M0.478055 32.7349C2.48616 32.7093 3.6753 33.6822 4.76944 34.8376C4.82513 34.9368 4.95617 35.1385 4.84479 35.1417C4.54996 35.4297 5.21169 36.5595 5.99134 36.8571C7.02652 37.3212 7.93721 37.03 9.13618 37.5676C11.0001 37.6028 12.7495 37.6669 14.4202 39.3631C14.7936 40.3585 16.9721 41.9139 16.8967 43.6902L16.5102 44.0455C15.3636 44.1159 14.6233 44.4487 13.6765 44.4327C12.7593 44.4391 11.6095 44.2983 10.345 43.2229C10.0108 42.8933 8.63497 41.7891 8.03221 41.133C7.67841 40.7457 7.29841 40.0992 7.13134 39.6256C7.21979 39.3823 7.04617 39.0207 6.74152 38.819C5.25755 37.8621 3.74737 39.4367 2.03409 38.4894C-0.0559119 37.3116 -0.167292 35.3817 0.111157 33.1125L0.478055 32.7381V32.7349Z" fill="#DCAE5B"/>
<path d="M18.3349 26.2833C17.706 24.6127 18.4955 22.8812 19.1867 21.4858C19.3374 21.1593 19.475 20.9289 19.6158 21.0409C19.7075 21.1145 19.8877 21.537 19.9991 21.5114C20.2022 21.5626 20.2415 21.3353 20.2251 21.1689C19.9565 19.447 18.3841 19.191 16.6839 18.4997C14.6037 17.6419 14.8658 14.8895 15.7339 13.5037C15.878 13.2764 16.6741 11.577 16.7625 11.561C16.7724 11.673 16.7429 11.9418 16.8215 12.0987C16.8903 12.3323 17.0312 12.4411 17.0672 12.3867C17.1884 11.7498 16.3694 10.6936 16.1893 9.79429C16.0091 9.16059 15.8846 8.15563 16.4382 7.58594L16.9656 7.65635C17.4046 8.07882 17.8272 7.9892 18.276 8.09162C22.1251 8.53969 23.6615 12.5947 20.9393 15.3376C20.5429 15.7568 20.1596 16.0545 19.8713 16.2945C19.57 16.525 19.4389 16.7074 19.2849 16.5154C19.2096 16.4578 19.0949 16.2145 18.9049 16.1505C18.7772 16.1537 18.7346 16.3201 18.7575 16.509C19.1932 18.5125 21.2406 18.5925 22.8622 19.4662C25.0013 20.9609 23.6844 24.219 21.8631 25.2112C20.9622 25.8353 20.0581 26.0529 18.8394 26.4402L18.3317 26.2897L18.3349 26.2833Z" fill="#DCAE5B"/>
<path d="M53.6462 39.8012C53.4234 44.618 50.5406 52.2896 44.3623 50.987C42.1839 50.5229 37.8303 48.3337 35.7468 47.524C34.0401 46.8263 31.9271 46.4486 30.0665 44.6019C25.8668 40.1372 25.1887 32.3568 32.0942 30.3245C33.1458 30.03 34.2366 29.9116 35.2915 30.0716L35.3406 30.4141C32.0287 31.9087 29.788 34.4851 30.6725 37.9353C31.0001 39.2283 31.9468 41.3982 32.6052 42.464C33.4078 43.5618 35.1735 44.5571 36.7885 45.9238C38.2496 47.2264 39.8744 48.3433 41.722 48.881C47.9461 50.5741 49.8232 43.2737 53.3218 39.6732L53.6494 39.8012H53.6462Z" fill="#DCAE5B"/>
<path d="M41.2096 41.1525C36.0239 40.9797 38.5562 29.9699 41.9664 28.5937C42.0352 28.5361 42.4086 28.3185 42.877 28.3889C43.375 28.4305 43.7681 28.9042 43.9286 28.7825C43.9188 28.7569 43.8827 28.7153 43.8336 28.6897C43.8205 28.6737 43.7615 28.6609 43.7812 28.6545C46.6443 28.1552 50.7588 28.8529 51.355 32.2967C51.3419 32.4311 51.3943 32.7736 51.3714 32.9048C51.3353 34.249 50.3034 34.9499 49.4091 35.126C48.3379 35.3276 47.6009 35.3148 46.7786 35.2316C46.6934 35.2444 46.8769 35.0427 46.736 35.1099C46.0972 35.4204 45.2455 36.9566 44.4429 36.1213L44.6165 35.8173C44.7705 35.8141 44.8164 35.7116 44.7738 35.654C44.7246 35.1228 44.7902 34.4634 45.0424 33.8906C45.5698 32.764 47.7319 32.4375 48.3019 31.887C48.1446 31.9158 47.745 32.3543 47.6893 32.9144C47.6696 32.9016 47.6631 32.8792 47.6631 32.86C47.6402 32.8472 47.6336 32.8408 47.6271 32.8312C46.7884 31.807 44.9408 31.4454 43.66 30.9557C43.1784 30.9205 42.5396 30.4692 42.3857 30.1364C42.3103 30.0083 42.3202 30.0115 42.4643 30.0115C42.6314 30.0051 42.7067 29.9091 42.5036 29.9635C41.7534 30.0339 41.0033 30.45 40.8526 31.2021C40.6429 32.2007 41.3079 33.3273 41.4553 34.6139C41.5962 35.9165 41.2522 37.0431 41.0851 38.0352C40.941 39.0594 40.5807 39.7379 41.3407 40.8357L41.1998 41.1525H41.2096Z" fill="#DCAE5B"/>
</g>
<defs>
<clipPath id="clip0_515_10660">
<rect width="80" height="80" fill="white"/>
</clipPath>
</defs>
</svg>
