<svg width="24" height="25" viewBox="0 0 24 25" fill="none" xmlns="http://www.w3.org/2000/svg">
<path d="M5.57136 8.20874C5.28486 6.32174 6.61536 4.62674 8.64786 4.00574C9.00856 3.89621 9.3974 3.92795 9.73556 4.09452C10.0737 4.26109 10.3359 4.55002 10.4689 4.90274L11.1214 6.64274C11.2264 6.92266 11.2454 7.22758 11.1759 7.51837C11.1064 7.80916 10.9516 8.07255 10.7314 8.27474L8.79036 10.0522C8.69457 10.1399 8.62319 10.251 8.58322 10.3746C8.54326 10.4982 8.53607 10.63 8.56236 10.7572L8.58036 10.8352L8.62686 11.0302C8.86886 11.9775 9.23663 12.8881 9.72036 13.7377C10.2485 14.6399 10.9032 15.4617 11.6644 16.1782L11.7244 16.2322C11.8213 16.3182 11.9388 16.3777 12.0655 16.4048C12.1922 16.4318 12.3238 16.4256 12.4474 16.3867L14.9569 15.5962C15.2421 15.5067 15.5475 15.5044 15.834 15.5897C16.1205 15.6749 16.375 15.8438 16.5649 16.0747L17.7529 17.5162C18.2479 18.1162 18.1879 18.9982 17.6194 19.5277C16.0639 20.9782 13.9249 21.2752 12.4369 20.0797C10.6121 18.6093 9.0744 16.8147 7.90086 14.7862C6.71585 12.7604 5.92643 10.5287 5.57136 8.20874ZM10.1344 10.8562L11.7424 9.38024C12.1831 8.97604 12.493 8.44934 12.6323 7.86775C12.7715 7.28616 12.7338 6.67622 12.5239 6.11624L11.8729 4.37624C11.6058 3.6664 11.0785 3.08483 10.3982 2.74967C9.71784 2.41451 8.93542 2.35089 8.20986 2.57174C5.68536 3.34424 3.65886 5.60774 4.08786 8.43524C4.38786 10.4092 5.07936 12.9202 6.60486 15.5422C7.87103 17.7294 9.52978 19.6643 11.4979 21.2497C13.7299 23.0422 16.7089 22.4302 18.6439 20.6272C19.1975 20.1117 19.5336 19.4043 19.5835 18.6495C19.6334 17.8946 19.3934 17.1492 18.9124 16.5652L17.7244 15.1222C17.3443 14.661 16.8352 14.3237 16.2622 14.1537C15.6892 13.9838 15.0785 13.9888 14.5084 14.1682L12.4249 14.8237C11.8869 14.2691 11.4157 13.6534 11.0209 12.9892C10.6399 12.3176 10.3427 11.6017 10.1359 10.8577" fill="white"/>
</svg>
